<svg xmlns="http://www.w3.org/2000/svg" viewBox="0 0 96 96" role="img" aria-label="Hikari">
  <defs>
    <linearGradient id="metal" x1="24" y1="18" x2="70" y2="82" gradientUnits="userSpaceOnUse">
      <stop offset="0" stop-color="#f7fbff"/>
      <stop offset="0.45" stop-color="#9aa7b7"/>
      <stop offset="1" stop-color="#f8fbff"/>
    </linearGradient>
    <linearGradient id="left-arc" x1="15" y1="22" x2="47" y2="76" gradientUnits="userSpaceOnUse">
      <stop offset="0" stop-color="#d4a35a"/>
      <stop offset="1" stop-color="#8a6d1f"/>
    </linearGradient>
    <linearGradient id="right-arc" x1="49" y1="19" x2="82" y2="78" gradientUnits="userSpaceOnUse">
      <stop offset="0" stop-color="#34d399"/>
      <stop offset="1" stop-color="#0f766e"/>
    </linearGradient>
    <filter id="glow" x="-30%" y="-30%" width="160%" height="160%">
      <feGaussianBlur stdDeviation="2.2" result="blur"/>
      <feMerge>
        <feMergeNode in="blur"/>
        <feMergeNode in="SourceGraphic"/>
      </feMerge>
    </filter>
  </defs>
  <rect width="96" height="96" rx="18" fill="#05080d"/>
  <path d="M45 10v24l-7 6V17L22 27v42l16 10V56l7 6v24L16 69V27z" fill="url(#metal)"/>
  <path d="M51 10v24l7 6V17l16 10v42L58 79V56l-7 6v24l29-17V27z" fill="url(#metal)"/>
  <path d="M35 44h26v8H35z" fill="url(#metal)"/>
  <path d="M39 17A32 32 0 0 0 39 79" fill="none" stroke="url(#left-arc)" stroke-width="5" stroke-linecap="round" filter="url(#glow)"/>
  <path d="M57 17A32 32 0 0 1 57 79" fill="none" stroke="url(#right-arc)" stroke-width="5" stroke-linecap="round" filter="url(#glow)"/>
  <path d="M60 34h7m-7 14h10m-10 14h7" fill="none" stroke="#10b981" stroke-width="2" stroke-linecap="round"/>
  <circle cx="72" cy="34" r="2.4" fill="#10b981"/>
  <circle cx="75" cy="48" r="2.4" fill="#10b981"/>
  <circle cx="72" cy="62" r="2.4" fill="#10b981"/>
</svg>
